Coordinates
version=1
nRows=17
nColumns=24
inDegrees=yes

Units are S.I. units (second, meters, Newtons, ...)
Angles are in degrees.

endheader
time	pelvis_tilt	pelvis_list	pelvis_rotation	pelvis_tx	pelvis_ty	pelvis_tz	hip_flexion_r	hip_adduction_r	hip_rotation_r	knee_angle_r	ankle_angle_r	subtalar_angle_r	mtp_angle_r	hip_flexion_l	hip_adduction_l	hip_rotation_l	knee_angle_l	ankle_angle_l	subtalar_angle_l	mtp_angle_l	lumbar_extension	lumbar_bending	lumbar_rotation
      0.90400000	     -5.43444444	     -1.97050678	      6.25655399	     -0.38944293	      0.90132483	      0.29118969	     17.45129361	      7.07671772	     -4.55648193	    -25.01742995	     14.05986217	      0.92240355	      5.76740300	     16.10339269	     -5.26513698	     -3.32956246	    -61.83163964	      7.97304495	     -4.82760541	      3.15829085	      0.93074360	      3.94042356	     -2.53667920
      0.90816667	     -5.35317019	     -1.83368265	      6.04720533	     -0.38447539	      0.90244942	      0.29158153	     16.72569462	      7.06394084	     -4.30339722	    -24.46081136	     14.07439132	      0.96024168	      5.78382027	     16.62705168	     -5.11426671	     -3.61842035	    -61.32325824	      8.34390043	     -4.93463240	      2.99738708	      0.80328084	      3.79794532	     -2.16611468
      0.91233333	     -5.30398758	     -1.70935694	      5.81887184	     -0.37953235	      0.90346959	      0.29200321	     16.04340117	      7.05831337	     -4.04714906	    -23.90717583	     14.02741117	      0.98671355	      5.82215547	     17.17942530	     -4.98602453	     -3.93053492	    -60.78228213	      8.70853691	     -5.00974192	      2.64476028	      0.73397693	      3.68807760	     -1.71164293
      0.91650000	     -5.24877125	     -1.54277810	      5.56295518	     -0.37462477	      0.90444627	      0.29243438	     15.38254718	      7.00048270	     -3.78477238	    -23.42450234	     14.07836611	      1.08431220	      5.83323569	     17.69752404	     -4.81584283	     -4.28230167	    -60.17682689	      9.03565813	     -5.16757430	      2.56613044	      0.63915217	      3.52787895	     -1.58523644
      0.92066667	     -5.12821080	     -1.40348874	      5.32751828	     -0.36969985	      0.90550250	      0.29288661	     14.61548175	      6.97973881	     -3.51542137	    -22.85368492	     14.09669028	      1.11162399	      5.85606278	     18.13988883	     -4.68774070	     -4.60664148	    -59.52457008	      9.26671000	     -5.28264347	      2.39301409	      0.44504428	      3.37389278	     -1.12546647
      0.92483333	     -5.05838479	     -1.27053444	      5.05757520	     -0.36479895	      0.90641187	      0.29336372	     13.92691830	      6.95542729	     -3.23756952	    -22.32158339	     14.05884785	      1.15632482	      5.89109578	     18.62482976	     -4.57841614	     -4.97966963	    -58.84153803	      9.52347776	     -5.39752488	      2.14750518	      0.33911184	      3.25187107	     -0.69911613
      0.92900000	     -4.97032358	     -1.11647169	      4.78465103	     -0.35994329	      0.90729989	      0.29386912	     13.22653792	      6.90746954	     -2.94222377	    -21.80665654	     14.10401699	      1.22116769	      5.91709308	     19.07787141	     -4.44998037	     -5.35461482	    -58.10968988	      9.70219817	     -5.53592923	      1.99411602	      0.17705533	      3.07543554	     -0.40769677
      0.93316667	     -4.88163505	     -0.97275149	      4.50019792	     -0.35508369	      0.90813870	      0.29437359	     12.52869333	      6.86164078	     -2.66322708	    -21.29101118	     14.10897181	      1.28958729	      5.94686697	     19.51502825	     -4.34174480	     -5.74839849	    -57.33542420	      9.86427665	     -5.68045598	      1.82720218	      0.03762661	      2.93496951	     -0.02410938
      0.93733333	     -4.79765541	     -0.83281196	      4.20503479	     -0.35024009	      0.90891457	      0.29489342	     11.84484490	      6.81397948	     -2.37589453	    -20.78867287	     14.11691348	      1.36131399	      5.97762277	     19.94542028	     -4.24549826	     -6.15599400	    -56.52259177	      9.99006458	     -5.83108834	      1.66961453	     -0.09896860	      2.79347970	      0.33914424
      0.94150000	     -4.71192859	     -0.69438458	      3.90700615	     -0.34542815	      0.90963437	      0.29541956	     11.16486231	      6.76062673	     -2.09435686	    -20.29007793	     14.12754085	      1.43920614	      6.01230500	     20.36609611	     -4.15500682	     -6.56575482	    -55.67608384	     10.08473605	     -5.98774755	      1.50642490	     -0.24957364	      2.64804081	      0.72468929
      0.94566667	     -4.62584742	     -0.56497127	      3.61212624	     -0.34063361	      0.91030173	      0.29593975	     10.48508430	      6.71014440	     -1.81523898	    -19.78572669	     14.14217583	      1.53025677	      6.05270745	     20.77785646	     -4.07509663	     -6.96908947	    -54.79506250	     10.15133519	     -6.14511800	      1.33045103	     -0.40019272	      2.50255128	      1.12515167
      0.94983333	     -4.54674387	     -0.44024920	      3.30955501	     -0.33585255	      0.91089722	      0.29646669	      9.82281560	      6.65596273	     -1.54048499	    -19.29881498	     14.15448381	      1.62996869	      6.10276687	     21.18609476	     -4.00582667	     -7.38089092	    -53.88289750	     10.19102740	     -6.31189527	      1.13138097	     -0.54666651	      2.35996223	      1.53240335
      0.95400000	     -4.48031489	     -0.30950093	      2.98071362	     -0.33109142	      0.91141794	      0.29699955	      9.19898256	      6.58419020	     -1.27513173	    -18.86034665	     14.17183105	      1.76127529	      6.13248762	     21.58656239	     -3.94385594	     -7.83613983	    -52.92316226	     10.18970318	     -6.46811772	      1.01971283	     -0.66165409	      2.24162420	      1.78554890
      0.95816667	     -4.38514751	     -0.19728722	      2.70154678	     -0.32632471	      0.91193389	      0.29747091	      8.51409578	      6.52478265	     -1.03592865	    -18.35537290	     14.22339316	      1.86424931	      6.18370814	     21.95627458	     -3.87474882	     -8.20292710	    -51.93704304	     10.17900393	     -6.64974068	      0.84463538	     -0.82138017	      2.10412526	      2.26164042
      0.96233333	     -4.33855082	     -0.09769287	      2.37838659	     -0.32158505	      0.91229461	      0.29799507	      7.91404649	      6.47206327	     -0.78521173	    -17.90930224	     14.24489335	      1.99453366	      6.33293834	     22.36837298	     -3.85259163	     -8.65046520	    -50.93828673	     10.14880760	     -6.76992637	      0.37666877	     -0.90555230	      1.99255547	      2.79398833
      0.96650000	     -4.25871264	      0.01942899	      2.07455870	     -0.31685891	      0.91268089	      0.29845225	      7.27979943	      6.38737460	     -0.55949879	    -17.46969081	     14.28300317	      2.15526723	      6.36604923	     22.72027147	     -3.78518359	     -9.04216034	    -49.87201819	     10.07985838	     -6.94082691	      0.27595319	     -1.05621001	      1.88361407	      2.95673074
      0.97066667	     -4.17688956	      0.10943647	      1.80231508	     -0.31211648	      0.91300279	      0.29886745	      6.62406937	      6.32334718	     -0.36657142	    -16.98693154	     14.35176960	      2.31601031	      6.42458754	     23.07126002	     -3.73548828	     -9.38700592	    -48.79591766	     10.01048959	     -7.11115037	      0.11769570	     -1.19930816	      1.77240801	      3.37990125
